<mxfile host="app.diagrams.net" modified="2024-06-15T12:39:54.900Z" agent="Mozilla/5.0 (Macintosh; Intel Mac OS X 10_15_7) AppleWebKit/537.36 (KHTML, like Gecko) Chrome/125.0.0.0 Safari/537.36" version="24.5.4" etag="QdFz0CSkyTbrhkfgAO1t" type="github">
  <diagram name="Seite-1" id="xRV9S7Nit6acygJ5ZigM">
    <mxGraphModel>
      <root>
        <mxCell id="0" />
        <mxCell id="1" parent="0" />
      </root>
    </mxGraphModel>
  </diagram>
</mxfile>
